HIERARCHY
ROOT Hips
{
	OFFSET 0.000000 0.000000 0.000000
	CHANNELS 6 Xposition Yposition Zposition Zrotation Yrotation Xrotation 
	JOINT LowerBack
	{
		OFFSET 0.000000 0.000000 0.000000
		CHANNELS 3 Zrotation Yrotation Xrotation
		JOINT Spine
		{
			OFFSET 0.028270 2.035590 -0.193380
			CHANNELS 3 Zrotation Yrotation Xrotation
			JOINT Spine1
			{
				OFFSET 0.056720 2.048850 -0.042750
				CHANNELS 3 Zrotation Yrotation Xrotation
				JOINT Neck
				{
					OFFSET 0.000000 0.000000 0.000000
					CHANNELS 3 Zrotation Yrotation Xrotation
					JOINT Neck1
					{
						OFFSET -0.054170 1.746240 0.172020
						CHANNELS 3 Zrotation Yrotation Xrotation
						JOINT Head
						{
							OFFSET 0.104070 1.761360 -0.123970
							CHANNELS 3 Zrotation Yrotation Xrotation
							End Site
							{
								OFFSET 0.000000 0.000000 0.000000
							}
						}
					}
				}
				JOINT LeftShoulder
				{
					OFFSET 0.000000 0.000000 0.000000
					CHANNELS 3 Zrotation Yrotation Xrotation
					JOINT LeftArm
					{
						OFFSET 3.362410 1.200890 -0.311210
						CHANNELS 3 Zrotation Yrotation Xrotation
						JOINT LeftForeArm
						{
							OFFSET 4.983000 -0.000000 -0.000000
							CHANNELS 3 Zrotation Yrotation Xrotation
							JOINT LeftHand
							{
								OFFSET 3.483560 -0.000000 -0.000000
								CHANNELS 3 Zrotation Yrotation Xrotation
								JOINT LeftFingerBase
								{
									OFFSET 0.000000 0.000000 0.000000
									CHANNELS 3 Zrotation Yrotation Xrotation
									JOINT LeftHandIndex1
									{
										OFFSET 0.715260 -0.000000 -0.000000
										CHANNELS 3 Zrotation Yrotation Xrotation
										End Site
										{
											OFFSET 0.000000 0.000000 0.000000
										}
									}
								}
								JOINT LThumb
								{
									OFFSET 0.000000 0.000000 0.000000
									CHANNELS 3 Zrotation Yrotation Xrotation
									End Site
									{
										OFFSET 0.000000 0.000000 0.000000
									}
								}
							}
						}
					}
				}
				JOINT RightShoulder
				{
					OFFSET 0.000000 0.000000 0.000000
					CHANNELS 3 Zrotation Yrotation Xrotation
					JOINT RightArm
					{
						OFFSET -3.136600 1.374050 -0.404650
						CHANNELS 3 Zrotation Yrotation Xrotation
						JOINT RightForeArm
						{
							OFFSET -5.241900 -0.000000 -0.000000
							CHANNELS 3 Zrotation Yrotation Xrotation
							JOINT RightHand
							{
								OFFSET -3.444170 -0.000000 -0.000000
								CHANNELS 3 Zrotation Yrotation Xrotation
								JOINT RightFingerBase
								{
									OFFSET 0.000000 0.000000 0.000000
									CHANNELS 3 Zrotation Yrotation Xrotation
									JOINT RightHandIndex1
									{
										OFFSET -0.622530 -0.000000 -0.000000
										CHANNELS 3 Zrotation Yrotation Xrotation
										End Site
										{
											OFFSET 0.000000 0.000000 0.000000
										}
									}
								}
								JOINT RThumb
								{
									OFFSET 0.000000 0.000000 0.000000
									CHANNELS 3 Zrotation Yrotation Xrotation
									End Site
									{
										OFFSET 0.000000 0.000000 0.000000
									}
								}
							}
						}
					}
				}
			}
		}
	}
}
}
MOTION
Frames: 18
Frame Time: 0.008333
0.145804 17.256872 1.964985 4.145390 -42.442045 15.081733 -5.384585 -3.783130 -7.121562 -1.908675 -3.534753 -3.717051 -8.387077 -3.453503 1.360528 15.484106 -15.973405 -6.854291 -1.586052 -0.135294 0.260744 0.000000 0.000000 0.000000 0.695633 4.549757 1.461142 -62.882195 -1.399216 4.496388 -2.825778 -41.308081 -0.002776 9.813786 -3.907149 -0.345978 -0.130563 0.083945 -0.000000 0.000000 0.000000 0.000000 0.000000 0.000000 0.000000 5.659221 -12.879717 -3.624224 78.537381 8.481808 7.336940 -179.244951 63.744683 179.846348 -13.900030 18.006436 -2.372772 0.212201 -0.989812 0.000000 0.000000 0.000000 0.000000 0.000000 0.000000 0.000000 
0.149236 17.253389 1.974271 3.878375 -41.424774 15.250490 -5.445716 -3.842103 -6.919055 -1.924519 -3.583903 -3.677307 -8.420960 -3.498109 1.336293 15.624230 -16.033528 -6.869868 -1.576882 -0.133878 0.251527 0.000000 0.000000 0.000000 0.792431 4.316229 1.475708 -62.797714 -1.823439 4.609821 -2.827741 -41.238781 -0.003369 9.831688 -3.902099 -0.346476 -0.131240 0.087500 -0.000000 0.000000 0.000000 0.000000 0.000000 0.000000 0.000000 5.750467 -12.968667 -3.577045 78.543766 8.219002 7.222376 -179.253491 63.742225 179.847164 -13.833960 18.030342 -2.364197 0.210483 -0.988796 0.000000 0.000000 0.000000 0.000000 0.000000 0.000000 0.000000 
0.152987 17.251043 1.982670 3.582338 -40.439160 15.438636 -5.484793 -3.899090 -6.717730 -1.936473 -3.633429 -3.638354 -8.456061 -3.543048 1.310336 15.768522 -16.088438 -6.881178 -1.569614 -0.132666 0.243335 0.000000 0.000000 0.000000 0.877910 4.077097 1.490690 -62.706368 -2.238805 4.682033 -2.828169 -41.170016 -0.003999 9.874043 -3.898296 -0.347975 -0.131863 0.091011 -0.000000 0.000000 0.000000 0.000000 0.000000 0.000000 0.000000 5.853434 -13.054172 -3.530671 78.547935 7.974019 7.127165 -179.264648 63.755688 179.848060 -13.767206 18.057479 -2.355821 0.208859 -0.987655 0.000000 0.000000 0.000000 0.000000 0.000000 0.000000 0.000000 
0.157201 17.250091 1.990406 3.260746 -39.487681 15.644983 -5.503141 -3.953701 -6.520169 -1.944624 -3.682776 -3.600087 -8.491566 -3.587744 1.285599 15.916482 -16.138323 -6.890401 -1.563577 -0.131572 0.235547 0.000000 0.000000 0.000000 0.950962 3.850153 1.505521 -62.611097 -2.668218 4.728918 -2.828365 -41.082573 -0.004665 9.944158 -3.898915 -0.350776 -0.132524 0.094502 -0.000000 0.000000 0.000000 0.000000 0.000000 0.000000 0.000000 5.966671 -13.136613 -3.486915 78.549843 7.746640 7.049519 -179.277688 63.785882 179.849004 -13.703318 18.086820 -2.348247 0.207373 -0.986318 0.000000 0.000000 0.000000 0.000000 0.000000 0.000000 0.000000 
0.161869 17.250848 1.997741 2.916757 -38.569513 15.871358 -5.499910 -4.005321 -6.329989 -1.948748 -3.731388 -3.563447 -8.526945 -3.631791 1.261538 16.066963 -16.182526 -6.896512 -1.558635 -0.130608 0.228505 0.000000 0.000000 0.000000 1.011184 3.631193 1.519996 -62.515466 -3.106479 4.751795 -2.828360 -40.974384 -0.005363 10.040147 -3.905084 -0.355077 -0.133209 0.097948 0.000000 0.000000 0.000000 0.000000 0.000000 0.000000 0.000000 6.087638 -13.215288 -3.445468 78.548282 7.532307 6.985689 -179.292235 63.831843 179.849970 -13.645242 18.117018 -2.341772 0.206078 -0.984739 0.000000 0.000000 0.000000 0.000000 0.000000 0.000000 0.000000 
0.167320 17.253566 2.004884 2.549059 -37.684657 16.118534 -5.474323 -4.052981 -6.149062 -1.948706 -3.778334 -3.528851 -8.562006 -3.674320 1.238182 16.219747 -16.221428 -6.899856 -1.554462 -0.129747 0.222141 0.000000 0.000000 0.000000 1.059695 3.421124 1.533827 -62.424771 -3.557040 4.756300 -2.828540 -40.837573 -0.006088 10.159104 -3.918101 -0.360780 -0.133925 0.101349 -0.000000 0.000000 0.000000 0.000000 0.000000 0.000000 0.000000 6.214610 -13.289896 -3.406257 78.541406 7.327648 6.931437 -179.307894 63.891924 179.850934 -13.595046 18.146210 -2.336397 0.205007 -0.982878 0.000000 0.000000 0.000000 0.000000 0.000000 0.000000 0.000000 
0.173771 17.258425 2.012115 2.152902 -36.830599 16.391668 -5.420630 -4.095388 -5.980686 -1.943387 -3.822845 -3.497528 -8.596554 -3.714746 1.213638 16.373472 -16.254533 -6.899261 -1.550911 -0.129009 0.216881 0.000000 0.000000 0.000000 1.097623 3.209282 1.547058 -62.345747 -4.007180 4.738838 -2.828578 -40.674733 -0.006833 10.293190 -3.937582 -0.367585 -0.134612 0.104688 -0.000000 0.000000 0.000000 0.000000 0.000000 0.000000 0.000000 6.343645 -13.358910 -3.368124 78.526390 7.127523 6.881931 -179.324511 63.962645 179.851881 -13.553331 18.172891 -2.332221 0.204153 -0.980743 0.000000 0.000000 0.000000 0.000000 0.000000 0.000000 0.000000 
0.181254 17.265505 2.019571 1.729745 -36.008942 16.691285 -5.338336 -4.131273 -5.825726 -1.932655 -3.863660 -3.469140 -8.630332 -3.751737 1.190197 16.529523 -16.283099 -6.897952 -1.547285 -0.128287 0.211810 0.000000 0.000000 0.000000 1.127984 3.009721 1.559600 -62.284354 -4.476994 4.713900 -2.829796 -40.468701 -0.007588 10.437038 -3.964289 -0.375590 -0.135336 0.108005 0.000000 0.000000 0.000000 0.000000 0.000000 0.000000 0.000000 6.474448 -13.422464 -3.331634 78.500901 6.932742 6.834262 -179.342047 64.039683 179.852797 -13.520272 18.195139 -2.328945 0.203545 -0.978354 0.000000 0.000000 0.000000 0.000000 0.000000 0.000000 0.000000 
0.190139 17.274828 2.027361 1.273443 -35.221064 17.020457 -5.223538 -4.158795 -5.685148 -1.915875 -3.899290 -3.444189 -8.663626 -3.783863 1.166711 16.688440 -16.307249 -6.896365 -1.543454 -0.127569 0.206842 0.000000 0.000000 0.000000 1.154245 2.818847 1.571597 -62.246909 -4.961449 4.681121 -2.832096 -40.219856 -0.008346 10.582073 -3.996615 -0.384097 -0.136069 0.111304 -0.000000 0.000000 0.000000 0.000000 0.000000 0.000000 0.000000 6.606252 -13.478751 -3.295743 78.460758 6.741690 6.784524 -179.360848 64.119763 179.853698 -13.493996 18.211812 -2.326169 0.203159 -0.975751 0.000000 0.000000 0.000000 0.000000 0.000000 0.000000 0.000000 
0.200592 17.286260 2.035679 0.775904 -34.467475 17.385801 -5.068125 -4.176176 -5.561555 -1.891470 -3.928706 -3.423596 -8.696488 -3.810208 1.141888 16.849820 -16.326539 -6.894669 -1.539116 -0.126838 0.202012 0.000000 0.000000 0.000000 1.178599 2.631682 1.583330 -62.239914 -5.451424 4.637878 -2.835132 -39.932934 -0.009100 10.718839 -4.031845 -0.392804 -0.136772 0.114600 0.000000 0.000000 0.000000 0.000000 0.000000 0.000000 0.000000 6.735631 -13.525493 -3.259421 78.402300 6.553480 6.729767 -179.381265 64.197721 179.854582 -13.472046 18.222315 -2.323293 0.202953 -0.973025 0.000000 0.000000 0.000000 0.000000 0.000000 0.000000 0.000000 
0.212842 17.299597 2.044581 0.230357 -33.751378 17.791406 -4.866422 -4.181736 -5.456214 -1.858368 -3.950756 -3.407808 -8.729128 -3.829657 1.115053 17.014004 -16.340404 -6.893733 -1.534130 -0.126073 0.197114 0.000000 0.000000 0.000000 1.203998 2.448543 1.595072 -62.268639 -5.942982 4.584391 -2.838668 -39.611677 -0.009846 10.839748 -4.066956 -0.400913 -0.137432 0.117912 0.000000 0.000000 0.000000 0.000000 0.000000 0.000000 0.000000 6.861671 -13.560163 -3.221993 78.321672 6.369310 6.668208 -179.403827 64.270252 179.855464 -13.451271 18.226464 -2.319917 0.202881 -0.970256 0.000000 0.000000 0.000000 0.000000 0.000000 0.000000 0.000000 
0.226982 17.314592 2.054080 -0.366454 -33.077304 18.238661 -4.616162 -4.174222 -5.369132 -1.816154 -3.964407 -3.396565 -8.761946 -3.841080 1.087053 17.182544 -16.348549 -6.895416 -1.528166 -0.125219 0.191597 0.000000 0.000000 0.000000 1.233402 2.278374 1.607019 -62.335716 -6.441669 4.526342 -2.842864 -39.255815 -0.010578 10.940266 -4.099321 -0.408123 -0.138083 0.121270 -0.000000 0.000000 0.000000 0.000000 0.000000 0.000000 0.000000 6.984367 -13.580785 -3.183606 78.216806 6.193279 6.599525 -179.428881 64.332104 179.856362 -13.428597 18.225015 -2.315442 0.202919 -0.967586 0.000000 0.000000 0.000000 0.000000 0.000000 0.000000 0.000000 
0.243259 17.330919 2.064209 -1.022815 -32.447548 18.731707 -4.311006 -4.152694 -5.301503 -1.763538 -3.969335 -3.390428 -8.795032 -3.844213 1.056554 17.354776 -16.349136 -6.899212 -1.521153 -0.124282 0.185639 0.000000 0.000000 0.000000 1.267993 2.118545 1.619429 -62.443941 -6.936014 4.460190 -2.846852 -38.877377 -0.011300 11.016522 -4.125626 -0.413933 -0.138697 0.124684 0.000000 0.000000 0.000000 0.000000 0.000000 0.000000 0.000000 7.101232 -13.584029 -3.143728 78.084472 6.026696 6.523164 -179.456760 64.380659 179.857286 -13.400793 18.219065 -2.309669 0.202996 -0.965113 0.000000 0.000000 0.000000 0.000000 0.000000 0.000000 0.000000 
0.261774 17.348200 2.075053 -1.742220 -31.863809 19.272369 -3.946692 -4.116912 -5.253800 -1.699530 -3.965733 -3.389557 -8.828098 -3.839260 1.023133 17.530101 -16.340390 -6.904752 -1.513062 -0.123267 0.179343 0.000000 0.000000 0.000000 1.307860 1.970526 1.632441 -62.594122 -7.418996 4.385317 -2.849967 -38.486638 -0.012013 11.067720 -4.142865 -0.417945 -0.139269 0.128159 0.000000 0.000000 0.000000 0.000000 0.000000 0.000000 0.000000 7.210916 -13.567425 -3.102367 77.922886 5.871562 6.439880 -179.487769 64.415771 179.858247 -13.365794 18.210546 -2.302398 0.203076 -0.962901 0.000000 0.000000 0.000000 0.000000 0.000000 0.000000 0.000000 
0.282523 17.366152 2.086595 -2.524892 -31.326875 19.859490 -3.522478 -4.067359 -5.224950 -1.623824 -3.954202 -3.393605 -8.860988 -3.826755 0.986944 17.708210 -16.320552 -6.911544 -1.503753 -0.122168 0.172803 0.000000 0.000000 0.000000 1.353150 1.837997 1.646018 -62.786134 -7.887393 4.303718 -2.851639 -38.091983 -0.012722 11.096351 -4.149737 -0.420056 -0.139809 0.131697 -0.000000 0.000000 0.000000 0.000000 0.000000 0.000000 0.000000 7.311524 -13.529117 -3.059992 77.731871 5.730372 6.350367 -179.521724 64.434449 179.859240 -13.322425 18.201454 -2.293626 0.203135 -0.961057 0.000000 0.000000 0.000000 0.000000 0.000000 0.000000 0.000000 
0.305824 17.384441 2.099045 -3.377639 -30.832750 20.495614 -3.030480 -4.004656 -5.215437 -1.534554 -3.936149 -3.402976 -8.892894 -3.808176 0.946887 17.885977 -16.287286 -6.917527 -1.493267 -0.121025 0.166636 0.000000 0.000000 0.000000 1.399561 1.717149 1.660122 -63.019182 -8.328281 4.211778 -2.850766 -37.707416 -0.013433 11.106054 -4.145255 -0.420369 -0.140277 0.135282 0.000000 0.000000 0.000000 0.000000 0.000000 0.000000 0.000000 7.398705 -13.467270 -3.016857 77.510218 5.602399 6.254724 -179.558499 64.438920 179.860267 -13.270431 18.193993 -2.283660 0.203122 -0.959575 0.000000 0.000000 0.000000 0.000000 0.000000 0.000000 0.000000 
0.331723 17.402878 2.112487 -4.298232 -30.377549 21.177011 -2.470604 -3.930191 -5.222798 -1.431416 -3.913018 -3.416974 -8.923194 -3.784875 0.903474 18.062028 -16.239263 -6.921576 -1.481476 -0.119838 0.161097 0.000000 0.000000 0.000000 1.444005 1.611333 1.674504 -63.291560 -8.741591 4.113146 -2.846890 -37.337835 -0.014156 11.103825 -4.130336 -0.419182 -0.140679 0.138901 0.000000 0.000000 0.000000 0.000000 0.000000 0.000000 0.000000 7.469872 -13.381752 -2.973875 77.259264 5.488548 6.153303 -179.597546 64.428665 179.861311 -13.210714 18.189937 -2.272896 0.203026 -0.958481 0.000000 0.000000 0.000000 0.000000 0.000000 0.000000 0.000000 
0.360459 17.421280 2.127155 -5.288044 -29.953223 21.902082 -1.836650 -3.845034 -5.245511 -1.312770 -3.886484 -3.435313 -8.950600 -3.758505 0.856862 18.232715 -16.175704 -6.922151 -1.468248 -0.118622 0.156619 0.000000 0.000000 0.000000 1.479637 1.520735 1.688861 -63.601944 -9.125067 4.009481 -2.839440 -36.987562 -0.014900 11.097477 -4.106906 -0.416996 -0.141001 0.142528 0.000000 0.000000 0.000000 0.000000 0.000000 0.000000 0.000000 7.520282 -13.273388 -2.931856 76.979622 5.387690 6.045565 -179.638398 64.406691 179.862360 -13.144993 18.190849 -2.261638 0.202833 -0.957712 0.000000 0.000000 0.000000 0.000000 0.000000 0.000000 0.000000 
